<mxfile host="Electron" modified="2024-09-29T08:16:45.437Z" agent="Mozilla/5.0 (Windows NT 10.0; Win64; x64) AppleWebKit/537.36 (KHTML, like Gecko) draw.io/22.0.2 Chrome/114.0.5735.289 Electron/25.8.4 Safari/537.36" etag="EJXIc0glhAlkwdtlrjsA" version="22.0.2" type="device">
  <diagram name="1 oldal" id="z-0_9Qp5cD4s-gaqckJS">
    <mxGraphModel dx="4280" dy="3246" grid="1" gridSize="10" guides="1" tooltips="1" connect="1" arrows="1" fold="1" page="1" pageScale="1" pageWidth="827" pageHeight="1169" math="0" shadow="0">
      <root>
        <mxCell id="0" />
        <mxCell id="1" parent="0" />
        <mxCell id="0qpid6vyg2dMy18ObH3P-1" value="&lt;b&gt;&lt;font style=&quot;font-size: 16px;&quot;&gt;User&lt;/font&gt;&lt;/b&gt;" style="rounded=0;whiteSpace=wrap;html=1;" parent="1" vertex="1">
          <mxGeometry x="240" y="120" width="120" height="60" as="geometry" />
        </mxCell>
        <mxCell id="0qpid6vyg2dMy18ObH3P-3" value="registrationDate" style="ellipse;whiteSpace=wrap;html=1;" parent="1" vertex="1">
          <mxGeometry x="300" y="-150" width="100" height="60" as="geometry" />
        </mxCell>
        <mxCell id="0qpid6vyg2dMy18ObH3P-5" value="password" style="ellipse;whiteSpace=wrap;html=1;" parent="1" vertex="1">
          <mxGeometry x="200" y="-150" width="100" height="60" as="geometry" />
        </mxCell>
        <mxCell id="0qpid6vyg2dMy18ObH3P-6" value="firstname" style="ellipse;whiteSpace=wrap;html=1;" parent="1" vertex="1">
          <mxGeometry x="-100" y="-150" width="100" height="60" as="geometry" />
        </mxCell>
        <mxCell id="0qpid6vyg2dMy18ObH3P-7" value="lastname" style="ellipse;whiteSpace=wrap;html=1;" parent="1" vertex="1">
          <mxGeometry y="-150" width="100" height="60" as="geometry" />
        </mxCell>
        <mxCell id="0qpid6vyg2dMy18ObH3P-9" value="&lt;u&gt;email&lt;/u&gt;" style="ellipse;whiteSpace=wrap;html=1;" parent="1" vertex="1">
          <mxGeometry x="100" y="-150" width="100" height="60" as="geometry" />
        </mxCell>
        <mxCell id="0qpid6vyg2dMy18ObH3P-11" value="" style="endArrow=none;html=1;rounded=0;exitX=0.5;exitY=1;exitDx=0;exitDy=0;entryX=0.5;entryY=0;entryDx=0;entryDy=0;" parent="1" source="0qpid6vyg2dMy18ObH3P-5" target="0qpid6vyg2dMy18ObH3P-1" edge="1">
          <mxGeometry width="50" height="50" relative="1" as="geometry">
            <mxPoint x="280" y="60" as="sourcePoint" />
            <mxPoint x="330" y="10" as="targetPoint" />
          </mxGeometry>
        </mxCell>
        <mxCell id="0qpid6vyg2dMy18ObH3P-15" value="" style="endArrow=none;html=1;rounded=0;exitX=0.5;exitY=1;exitDx=0;exitDy=0;entryX=0.5;entryY=0;entryDx=0;entryDy=0;" parent="1" source="0qpid6vyg2dMy18ObH3P-9" target="0qpid6vyg2dMy18ObH3P-1" edge="1">
          <mxGeometry width="50" height="50" relative="1" as="geometry">
            <mxPoint x="30" y="-1" as="sourcePoint" />
            <mxPoint x="250" y="60" as="targetPoint" />
          </mxGeometry>
        </mxCell>
        <mxCell id="0qpid6vyg2dMy18ObH3P-18" value="" style="endArrow=none;html=1;rounded=0;entryX=0.5;entryY=0;entryDx=0;entryDy=0;exitX=0.5;exitY=1;exitDx=0;exitDy=0;" parent="1" source="0qpid6vyg2dMy18ObH3P-7" target="0qpid6vyg2dMy18ObH3P-1" edge="1">
          <mxGeometry width="50" height="50" relative="1" as="geometry">
            <mxPoint x="120" y="-20" as="sourcePoint" />
            <mxPoint x="250" y="-20" as="targetPoint" />
          </mxGeometry>
        </mxCell>
        <mxCell id="0qpid6vyg2dMy18ObH3P-19" value="" style="endArrow=none;html=1;rounded=0;entryX=0.5;entryY=0;entryDx=0;entryDy=0;exitX=0.5;exitY=1;exitDx=0;exitDy=0;" parent="1" source="0qpid6vyg2dMy18ObH3P-6" target="0qpid6vyg2dMy18ObH3P-1" edge="1">
          <mxGeometry width="50" height="50" relative="1" as="geometry">
            <mxPoint x="204.4" y="-109.99999999999997" as="sourcePoint" />
            <mxPoint x="235.59999999999982" y="66.03999999999999" as="targetPoint" />
          </mxGeometry>
        </mxCell>
        <mxCell id="0qpid6vyg2dMy18ObH3P-20" value="" style="endArrow=none;html=1;rounded=0;entryX=0.5;entryY=0;entryDx=0;entryDy=0;exitX=0.5;exitY=1;exitDx=0;exitDy=0;" parent="1" source="0qpid6vyg2dMy18ObH3P-3" target="0qpid6vyg2dMy18ObH3P-1" edge="1">
          <mxGeometry width="50" height="50" relative="1" as="geometry">
            <mxPoint x="70" y="39" as="sourcePoint" />
            <mxPoint x="200" y="39" as="targetPoint" />
          </mxGeometry>
        </mxCell>
        <mxCell id="0qpid6vyg2dMy18ObH3P-32" value="&lt;b&gt;&lt;font style=&quot;font-size: 16px;&quot;&gt;Favourite&lt;/font&gt;&lt;/b&gt;" style="rounded=0;whiteSpace=wrap;html=1;" parent="1" vertex="1">
          <mxGeometry x="240" y="510" width="120" height="60" as="geometry" />
        </mxCell>
        <mxCell id="0qpid6vyg2dMy18ObH3P-34" value="&lt;u&gt;eventID&lt;/u&gt;" style="ellipse;whiteSpace=wrap;html=1;" parent="1" vertex="1">
          <mxGeometry x="30" y="540" width="100" height="60" as="geometry" />
        </mxCell>
        <mxCell id="0qpid6vyg2dMy18ObH3P-36" value="" style="endArrow=none;html=1;rounded=0;exitX=1;exitY=0.5;exitDx=0;exitDy=0;entryX=0;entryY=0.5;entryDx=0;entryDy=0;" parent="1" source="0qpid6vyg2dMy18ObH3P-34" target="0qpid6vyg2dMy18ObH3P-32" edge="1">
          <mxGeometry width="50" height="50" relative="1" as="geometry">
            <mxPoint x="350" y="580" as="sourcePoint" />
            <mxPoint x="400" y="530" as="targetPoint" />
          </mxGeometry>
        </mxCell>
        <mxCell id="0qpid6vyg2dMy18ObH3P-39" value="&lt;b&gt;&lt;font style=&quot;font-size: 16px;&quot;&gt;Event&lt;/font&gt;&lt;/b&gt;" style="rounded=0;whiteSpace=wrap;html=1;" parent="1" vertex="1">
          <mxGeometry x="707" y="515" width="120" height="60" as="geometry" />
        </mxCell>
        <mxCell id="0qpid6vyg2dMy18ObH3P-41" value="&lt;u&gt;eventID&lt;/u&gt;" style="ellipse;whiteSpace=wrap;html=1;" parent="1" vertex="1">
          <mxGeometry x="1440" y="980" width="100" height="60" as="geometry" />
        </mxCell>
        <mxCell id="0qpid6vyg2dMy18ObH3P-43" value="title" style="ellipse;whiteSpace=wrap;html=1;" parent="1" vertex="1">
          <mxGeometry x="1340" y="980" width="100" height="60" as="geometry" />
        </mxCell>
        <mxCell id="0qpid6vyg2dMy18ObH3P-44" value="description" style="ellipse;whiteSpace=wrap;html=1;" parent="1" vertex="1">
          <mxGeometry x="1240" y="980" width="100" height="60" as="geometry" />
        </mxCell>
        <mxCell id="0qpid6vyg2dMy18ObH3P-45" value="" style="endArrow=none;html=1;rounded=0;entryX=0.5;entryY=1;entryDx=0;entryDy=0;exitX=0.5;exitY=0;exitDx=0;exitDy=0;" parent="1" source="0qpid6vyg2dMy18ObH3P-44" target="0qpid6vyg2dMy18ObH3P-39" edge="1">
          <mxGeometry width="50" height="50" relative="1" as="geometry">
            <mxPoint x="470" y="590" as="sourcePoint" />
            <mxPoint x="520" y="540" as="targetPoint" />
          </mxGeometry>
        </mxCell>
        <mxCell id="0qpid6vyg2dMy18ObH3P-46" value="" style="endArrow=none;html=1;rounded=0;entryX=0.5;entryY=1;entryDx=0;entryDy=0;exitX=0.5;exitY=0;exitDx=0;exitDy=0;" parent="1" source="0qpid6vyg2dMy18ObH3P-43" target="0qpid6vyg2dMy18ObH3P-39" edge="1">
          <mxGeometry width="50" height="50" relative="1" as="geometry">
            <mxPoint x="750" y="740" as="sourcePoint" />
            <mxPoint x="770" y="670" as="targetPoint" />
          </mxGeometry>
        </mxCell>
        <mxCell id="0qpid6vyg2dMy18ObH3P-48" value="" style="endArrow=none;html=1;rounded=0;entryX=0.5;entryY=1;entryDx=0;entryDy=0;exitX=0.5;exitY=0;exitDx=0;exitDy=0;" parent="1" source="0qpid6vyg2dMy18ObH3P-41" target="0qpid6vyg2dMy18ObH3P-39" edge="1">
          <mxGeometry width="50" height="50" relative="1" as="geometry">
            <mxPoint x="900" y="700" as="sourcePoint" />
            <mxPoint x="830" y="655" as="targetPoint" />
          </mxGeometry>
        </mxCell>
        <mxCell id="0qpid6vyg2dMy18ObH3P-54" value="&lt;span style=&quot;color: rgb(0, 0, 0); font-family: Helvetica; font-size: 12px; font-style: normal; font-variant-ligatures: normal; font-variant-caps: normal; font-weight: 400; letter-spacing: normal; orphans: 2; text-align: center; text-indent: 0px; text-transform: none; widows: 2; word-spacing: 0px; -webkit-text-stroke-width: 0px; background-color: rgb(251, 251, 251); text-decoration-thickness: initial; text-decoration-style: initial; text-decoration-color: initial; float: none; display: inline !important;&quot;&gt;price&lt;/span&gt;" style="ellipse;whiteSpace=wrap;html=1;" parent="1" vertex="1">
          <mxGeometry x="1140" y="980" width="100" height="60" as="geometry" />
        </mxCell>
        <mxCell id="0qpid6vyg2dMy18ObH3P-55" value="" style="endArrow=none;html=1;rounded=0;exitX=0.5;exitY=0;exitDx=0;exitDy=0;entryX=0.5;entryY=1;entryDx=0;entryDy=0;" parent="1" source="0qpid6vyg2dMy18ObH3P-54" target="0qpid6vyg2dMy18ObH3P-39" edge="1">
          <mxGeometry width="50" height="50" relative="1" as="geometry">
            <mxPoint x="624" y="770" as="sourcePoint" />
            <mxPoint x="820" y="680" as="targetPoint" />
          </mxGeometry>
        </mxCell>
        <mxCell id="0qpid6vyg2dMy18ObH3P-61" value="" style="endArrow=none;html=1;rounded=0;entryX=0;entryY=0.5;entryDx=0;entryDy=0;exitX=0.25;exitY=1;exitDx=0;exitDy=0;" parent="1" source="0qpid6vyg2dMy18ObH3P-94" target="0qpid6vyg2dMy18ObH3P-39" edge="1">
          <mxGeometry width="50" height="50" relative="1" as="geometry">
            <mxPoint x="540" y="539.9999999999995" as="sourcePoint" />
            <mxPoint x="400" y="620" as="targetPoint" />
          </mxGeometry>
        </mxCell>
        <mxCell id="0qpid6vyg2dMy18ObH3P-69" value="&lt;u&gt;&lt;i&gt;email&lt;/i&gt;&lt;/u&gt;" style="ellipse;whiteSpace=wrap;html=1;" parent="1" vertex="1">
          <mxGeometry x="30" y="480" width="100" height="60" as="geometry" />
        </mxCell>
        <mxCell id="0qpid6vyg2dMy18ObH3P-73" value="" style="endArrow=none;html=1;rounded=0;exitX=1;exitY=0.5;exitDx=0;exitDy=0;entryX=0;entryY=0.5;entryDx=0;entryDy=0;" parent="1" source="0qpid6vyg2dMy18ObH3P-69" target="0qpid6vyg2dMy18ObH3P-32" edge="1">
          <mxGeometry width="50" height="50" relative="1" as="geometry">
            <mxPoint x="140" y="280" as="sourcePoint" />
            <mxPoint x="240" y="340" as="targetPoint" />
          </mxGeometry>
        </mxCell>
        <mxCell id="0qpid6vyg2dMy18ObH3P-75" value="" style="endArrow=none;html=1;rounded=0;exitX=0.5;exitY=0;exitDx=0;exitDy=0;entryX=0.5;entryY=1;entryDx=0;entryDy=0;" parent="1" source="0qpid6vyg2dMy18ObH3P-32" target="0qpid6vyg2dMy18ObH3P-1" edge="1">
          <mxGeometry width="50" height="50" relative="1" as="geometry">
            <mxPoint x="300" y="300" as="sourcePoint" />
            <mxPoint x="570" y="260" as="targetPoint" />
          </mxGeometry>
        </mxCell>
        <mxCell id="0qpid6vyg2dMy18ObH3P-86" value="N" style="text;html=1;strokeColor=none;fillColor=none;align=center;verticalAlign=middle;whiteSpace=wrap;rounded=0;" parent="1" vertex="1">
          <mxGeometry x="290" y="480" width="60" height="30" as="geometry" />
        </mxCell>
        <mxCell id="0qpid6vyg2dMy18ObH3P-87" value="1" style="text;html=1;strokeColor=none;fillColor=none;align=center;verticalAlign=middle;whiteSpace=wrap;rounded=0;" parent="1" vertex="1">
          <mxGeometry x="280" y="180" width="60" height="30" as="geometry" />
        </mxCell>
        <mxCell id="0qpid6vyg2dMy18ObH3P-94" value="N" style="text;html=1;strokeColor=none;fillColor=none;align=center;verticalAlign=middle;whiteSpace=wrap;rounded=0;" parent="1" vertex="1">
          <mxGeometry x="340" y="515" width="60" height="30" as="geometry" />
        </mxCell>
        <mxCell id="0qpid6vyg2dMy18ObH3P-95" value="1" style="text;html=1;strokeColor=none;fillColor=none;align=center;verticalAlign=middle;whiteSpace=wrap;rounded=0;" parent="1" vertex="1">
          <mxGeometry x="640" y="590" width="60" height="30" as="geometry" />
        </mxCell>
        <mxCell id="ONPl0PBk7fpQzXXdxWz0-1" value="&lt;span style=&quot;font-size: 16px;&quot;&gt;&lt;b&gt;Record&lt;/b&gt;&lt;/span&gt;" style="rounded=0;whiteSpace=wrap;html=1;" parent="1" vertex="1">
          <mxGeometry x="-380" y="120" width="120" height="60" as="geometry" />
        </mxCell>
        <mxCell id="ONPl0PBk7fpQzXXdxWz0-3" value="&lt;u&gt;recordID&lt;/u&gt;" style="ellipse;whiteSpace=wrap;html=1;" parent="1" vertex="1">
          <mxGeometry x="-650" y="50" width="100" height="60" as="geometry" />
        </mxCell>
        <mxCell id="ONPl0PBk7fpQzXXdxWz0-4" value="createDate" style="ellipse;whiteSpace=wrap;html=1;" parent="1" vertex="1">
          <mxGeometry x="-650" y="120" width="100" height="60" as="geometry" />
        </mxCell>
        <mxCell id="ONPl0PBk7fpQzXXdxWz0-5" value="&lt;i&gt;email&lt;/i&gt;" style="ellipse;whiteSpace=wrap;html=1;" parent="1" vertex="1">
          <mxGeometry x="-650" y="-20" width="100" height="60" as="geometry" />
        </mxCell>
        <mxCell id="ONPl0PBk7fpQzXXdxWz0-6" value="&lt;i&gt;cubeType&lt;/i&gt;" style="ellipse;whiteSpace=wrap;html=1;" parent="1" vertex="1">
          <mxGeometry x="-650" y="270" width="100" height="60" as="geometry" />
        </mxCell>
        <mxCell id="ONPl0PBk7fpQzXXdxWz0-8" value="time" style="ellipse;whiteSpace=wrap;html=1;" parent="1" vertex="1">
          <mxGeometry x="-650" y="190" width="100" height="60" as="geometry" />
        </mxCell>
        <mxCell id="ONPl0PBk7fpQzXXdxWz0-9" value="" style="endArrow=none;html=1;rounded=0;exitX=1;exitY=0.5;exitDx=0;exitDy=0;entryX=0;entryY=0.5;entryDx=0;entryDy=0;" parent="1" source="ONPl0PBk7fpQzXXdxWz0-3" target="ONPl0PBk7fpQzXXdxWz0-1" edge="1">
          <mxGeometry width="50" height="50" relative="1" as="geometry">
            <mxPoint x="-400" y="165" as="sourcePoint" />
            <mxPoint x="-350" y="115" as="targetPoint" />
          </mxGeometry>
        </mxCell>
        <mxCell id="ONPl0PBk7fpQzXXdxWz0-12" value="" style="endArrow=none;html=1;rounded=0;entryX=0;entryY=0.5;entryDx=0;entryDy=0;exitX=1;exitY=0.5;exitDx=0;exitDy=0;" parent="1" source="ONPl0PBk7fpQzXXdxWz0-1" target="0qpid6vyg2dMy18ObH3P-1" edge="1">
          <mxGeometry width="50" height="50" relative="1" as="geometry">
            <mxPoint x="-250" y="170" as="sourcePoint" />
            <mxPoint x="190" y="180" as="targetPoint" />
          </mxGeometry>
        </mxCell>
        <mxCell id="ONPl0PBk7fpQzXXdxWz0-14" value="1" style="text;html=1;strokeColor=none;fillColor=none;align=center;verticalAlign=middle;whiteSpace=wrap;rounded=0;" parent="1" vertex="1">
          <mxGeometry x="200" y="120" width="60" height="30" as="geometry" />
        </mxCell>
        <mxCell id="ONPl0PBk7fpQzXXdxWz0-15" value="N" style="text;html=1;strokeColor=none;fillColor=none;align=center;verticalAlign=middle;whiteSpace=wrap;rounded=0;" parent="1" vertex="1">
          <mxGeometry x="-280" y="120" width="60" height="30" as="geometry" />
        </mxCell>
        <mxCell id="ONPl0PBk7fpQzXXdxWz0-18" value="" style="endArrow=none;html=1;rounded=0;exitX=1;exitY=0.5;exitDx=0;exitDy=0;entryX=0;entryY=0.5;entryDx=0;entryDy=0;" parent="1" source="ONPl0PBk7fpQzXXdxWz0-4" target="ONPl0PBk7fpQzXXdxWz0-1" edge="1">
          <mxGeometry width="50" height="50" relative="1" as="geometry">
            <mxPoint x="-260" y="210" as="sourcePoint" />
            <mxPoint x="-430" y="190" as="targetPoint" />
          </mxGeometry>
        </mxCell>
        <mxCell id="ONPl0PBk7fpQzXXdxWz0-19" value="" style="endArrow=none;html=1;rounded=0;exitX=1;exitY=0.5;exitDx=0;exitDy=0;entryX=0;entryY=0.5;entryDx=0;entryDy=0;" parent="1" source="ONPl0PBk7fpQzXXdxWz0-8" target="ONPl0PBk7fpQzXXdxWz0-1" edge="1">
          <mxGeometry width="50" height="50" relative="1" as="geometry">
            <mxPoint x="-540" y="165" as="sourcePoint" />
            <mxPoint x="-430" y="250" as="targetPoint" />
          </mxGeometry>
        </mxCell>
        <mxCell id="ONPl0PBk7fpQzXXdxWz0-20" value="" style="endArrow=none;html=1;rounded=0;exitX=1;exitY=0.5;exitDx=0;exitDy=0;entryX=0;entryY=0.5;entryDx=0;entryDy=0;" parent="1" source="ONPl0PBk7fpQzXXdxWz0-6" target="ONPl0PBk7fpQzXXdxWz0-1" edge="1">
          <mxGeometry width="50" height="50" relative="1" as="geometry">
            <mxPoint x="-530" y="175" as="sourcePoint" />
            <mxPoint x="-370" y="170" as="targetPoint" />
          </mxGeometry>
        </mxCell>
        <mxCell id="ONPl0PBk7fpQzXXdxWz0-24" value="" style="endArrow=none;html=1;rounded=0;exitX=1;exitY=0.5;exitDx=0;exitDy=0;entryX=0;entryY=0.5;entryDx=0;entryDy=0;" parent="1" source="ONPl0PBk7fpQzXXdxWz0-5" target="ONPl0PBk7fpQzXXdxWz0-1" edge="1">
          <mxGeometry width="50" height="50" relative="1" as="geometry">
            <mxPoint x="-160" y="235" as="sourcePoint" />
            <mxPoint x="-110" y="200" as="targetPoint" />
          </mxGeometry>
        </mxCell>
        <mxCell id="ONPl0PBk7fpQzXXdxWz0-25" value="role" style="ellipse;whiteSpace=wrap;html=1;" parent="1" vertex="1">
          <mxGeometry x="400" y="-150" width="100" height="60" as="geometry" />
        </mxCell>
        <mxCell id="ONPl0PBk7fpQzXXdxWz0-26" value="" style="endArrow=none;html=1;rounded=0;exitX=0.5;exitY=0;exitDx=0;exitDy=0;entryX=0.5;entryY=1;entryDx=0;entryDy=0;" parent="1" source="0qpid6vyg2dMy18ObH3P-1" target="ONPl0PBk7fpQzXXdxWz0-25" edge="1">
          <mxGeometry width="50" height="50" relative="1" as="geometry">
            <mxPoint x="90" as="sourcePoint" />
            <mxPoint x="140" y="-50" as="targetPoint" />
          </mxGeometry>
        </mxCell>
        <mxCell id="ONPl0PBk7fpQzXXdxWz0-29" value="&lt;span style=&quot;font-size: 16px;&quot;&gt;&lt;b&gt;Image&lt;br&gt;&lt;/b&gt;&lt;/span&gt;" style="rounded=0;whiteSpace=wrap;html=1;" parent="1" vertex="1">
          <mxGeometry x="1080" y="515" width="140" height="60" as="geometry" />
        </mxCell>
        <mxCell id="ONPl0PBk7fpQzXXdxWz0-30" value="&lt;u&gt;&lt;i&gt;advertisementID&lt;/i&gt;&lt;/u&gt;" style="ellipse;whiteSpace=wrap;html=1;" parent="1" vertex="1">
          <mxGeometry x="1290" y="485" width="100" height="60" as="geometry" />
        </mxCell>
        <mxCell id="ONPl0PBk7fpQzXXdxWz0-31" value="&lt;u&gt;imagePath&lt;/u&gt;" style="ellipse;whiteSpace=wrap;html=1;" parent="1" vertex="1">
          <mxGeometry x="1290" y="545" width="100" height="60" as="geometry" />
        </mxCell>
        <mxCell id="ONPl0PBk7fpQzXXdxWz0-32" value="" style="endArrow=none;html=1;rounded=0;entryX=0;entryY=0.5;entryDx=0;entryDy=0;exitX=1;exitY=0.5;exitDx=0;exitDy=0;" parent="1" source="ONPl0PBk7fpQzXXdxWz0-29" target="ONPl0PBk7fpQzXXdxWz0-30" edge="1">
          <mxGeometry width="50" height="50" relative="1" as="geometry">
            <mxPoint x="750" y="720" as="sourcePoint" />
            <mxPoint x="800" y="670" as="targetPoint" />
          </mxGeometry>
        </mxCell>
        <mxCell id="ONPl0PBk7fpQzXXdxWz0-33" value="" style="endArrow=none;html=1;rounded=0;entryX=0;entryY=0.5;entryDx=0;entryDy=0;exitX=1;exitY=0.5;exitDx=0;exitDy=0;" parent="1" target="ONPl0PBk7fpQzXXdxWz0-31" edge="1" source="ONPl0PBk7fpQzXXdxWz0-29">
          <mxGeometry width="50" height="50" relative="1" as="geometry">
            <mxPoint x="1220" y="540" as="sourcePoint" />
            <mxPoint x="1300" y="490" as="targetPoint" />
          </mxGeometry>
        </mxCell>
        <mxCell id="ONPl0PBk7fpQzXXdxWz0-35" value="" style="endArrow=none;html=1;rounded=0;entryX=0;entryY=0.5;entryDx=0;entryDy=0;exitX=1;exitY=0.5;exitDx=0;exitDy=0;" parent="1" source="0qpid6vyg2dMy18ObH3P-39" target="ONPl0PBk7fpQzXXdxWz0-29" edge="1">
          <mxGeometry width="50" height="50" relative="1" as="geometry">
            <mxPoint x="700" y="540" as="sourcePoint" />
            <mxPoint x="1010" y="550" as="targetPoint" />
          </mxGeometry>
        </mxCell>
        <mxCell id="ONPl0PBk7fpQzXXdxWz0-37" value="1" style="text;html=1;strokeColor=none;fillColor=none;align=center;verticalAlign=middle;whiteSpace=wrap;rounded=0;" parent="1" vertex="1">
          <mxGeometry x="800" y="590" width="60" height="30" as="geometry" />
        </mxCell>
        <mxCell id="ONPl0PBk7fpQzXXdxWz0-38" value="1" style="text;html=1;strokeColor=none;fillColor=none;align=center;verticalAlign=middle;whiteSpace=wrap;rounded=0;" parent="1" vertex="1">
          <mxGeometry x="1040" y="510" width="60" height="30" as="geometry" />
        </mxCell>
        <mxCell id="y5lAfnSBGU6_NEg_lJFl-5" value="fromDate" style="ellipse;whiteSpace=wrap;html=1;" parent="1" vertex="1">
          <mxGeometry x="340" y="980" width="100" height="60" as="geometry" />
        </mxCell>
        <mxCell id="y5lAfnSBGU6_NEg_lJFl-6" value="" style="endArrow=none;html=1;rounded=0;exitX=0.5;exitY=0;exitDx=0;exitDy=0;entryX=0.5;entryY=1;entryDx=0;entryDy=0;" parent="1" source="y5lAfnSBGU6_NEg_lJFl-5" target="0qpid6vyg2dMy18ObH3P-39" edge="1">
          <mxGeometry width="50" height="50" relative="1" as="geometry">
            <mxPoint x="624" y="840" as="sourcePoint" />
            <mxPoint x="820" y="700" as="targetPoint" />
          </mxGeometry>
        </mxCell>
        <mxCell id="y5lAfnSBGU6_NEg_lJFl-7" value="untilDate" style="ellipse;whiteSpace=wrap;html=1;" parent="1" vertex="1">
          <mxGeometry x="240" y="980" width="100" height="60" as="geometry" />
        </mxCell>
        <mxCell id="y5lAfnSBGU6_NEg_lJFl-8" value="" style="endArrow=none;html=1;rounded=0;exitX=1;exitY=0;exitDx=0;exitDy=0;entryX=0.5;entryY=1;entryDx=0;entryDy=0;" parent="1" source="y5lAfnSBGU6_NEg_lJFl-7" target="0qpid6vyg2dMy18ObH3P-39" edge="1">
          <mxGeometry width="50" height="50" relative="1" as="geometry">
            <mxPoint x="624" y="900" as="sourcePoint" />
            <mxPoint x="820" y="690" as="targetPoint" />
          </mxGeometry>
        </mxCell>
        <mxCell id="y5lAfnSBGU6_NEg_lJFl-10" value="award" style="ellipse;whiteSpace=wrap;html=1;" parent="1" vertex="1">
          <mxGeometry x="1040" y="980" width="100" height="60" as="geometry" />
        </mxCell>
        <mxCell id="y5lAfnSBGU6_NEg_lJFl-11" value="" style="endArrow=none;html=1;rounded=0;exitX=0.5;exitY=0;exitDx=0;exitDy=0;entryX=0.5;entryY=1;entryDx=0;entryDy=0;" parent="1" source="y5lAfnSBGU6_NEg_lJFl-10" target="0qpid6vyg2dMy18ObH3P-39" edge="1">
          <mxGeometry width="50" height="50" relative="1" as="geometry">
            <mxPoint x="624" y="830" as="sourcePoint" />
            <mxPoint x="810" y="690" as="targetPoint" />
            <Array as="points" />
          </mxGeometry>
        </mxCell>
        <mxCell id="y5lAfnSBGU6_NEg_lJFl-12" value="country" style="ellipse;whiteSpace=wrap;html=1;" parent="1" vertex="1">
          <mxGeometry x="440" y="980" width="100" height="60" as="geometry" />
        </mxCell>
        <mxCell id="y5lAfnSBGU6_NEg_lJFl-13" value="" style="endArrow=none;html=1;rounded=0;exitX=0.5;exitY=0;exitDx=0;exitDy=0;entryX=0.5;entryY=1;entryDx=0;entryDy=0;" parent="1" source="y5lAfnSBGU6_NEg_lJFl-12" target="0qpid6vyg2dMy18ObH3P-39" edge="1">
          <mxGeometry width="50" height="50" relative="1" as="geometry">
            <mxPoint x="814" y="1095" as="sourcePoint" />
            <mxPoint x="940" y="855" as="targetPoint" />
          </mxGeometry>
        </mxCell>
        <mxCell id="y5lAfnSBGU6_NEg_lJFl-14" value="postalcode" style="ellipse;whiteSpace=wrap;html=1;" parent="1" vertex="1">
          <mxGeometry x="540" y="980" width="100" height="60" as="geometry" />
        </mxCell>
        <mxCell id="y5lAfnSBGU6_NEg_lJFl-15" value="" style="endArrow=none;html=1;rounded=0;exitX=0.5;exitY=0;exitDx=0;exitDy=0;entryX=0.5;entryY=1;entryDx=0;entryDy=0;" parent="1" source="y5lAfnSBGU6_NEg_lJFl-14" target="0qpid6vyg2dMy18ObH3P-39" edge="1">
          <mxGeometry width="50" height="50" relative="1" as="geometry">
            <mxPoint x="904" y="1110" as="sourcePoint" />
            <mxPoint x="840" y="675" as="targetPoint" />
          </mxGeometry>
        </mxCell>
        <mxCell id="y5lAfnSBGU6_NEg_lJFl-16" value="city" style="ellipse;whiteSpace=wrap;html=1;" parent="1" vertex="1">
          <mxGeometry x="640" y="980" width="100" height="60" as="geometry" />
        </mxCell>
        <mxCell id="y5lAfnSBGU6_NEg_lJFl-17" value="" style="endArrow=none;html=1;rounded=0;exitX=1;exitY=0;exitDx=0;exitDy=0;entryX=0.5;entryY=1;entryDx=0;entryDy=0;" parent="1" source="y5lAfnSBGU6_NEg_lJFl-16" edge="1" target="0qpid6vyg2dMy18ObH3P-39">
          <mxGeometry width="50" height="50" relative="1" as="geometry">
            <mxPoint x="944" y="1165" as="sourcePoint" />
            <mxPoint x="750" y="660" as="targetPoint" />
          </mxGeometry>
        </mxCell>
        <mxCell id="y5lAfnSBGU6_NEg_lJFl-18" value="street" style="ellipse;whiteSpace=wrap;html=1;" parent="1" vertex="1">
          <mxGeometry x="740" y="980" width="100" height="60" as="geometry" />
        </mxCell>
        <mxCell id="y5lAfnSBGU6_NEg_lJFl-19" value="" style="endArrow=none;html=1;rounded=0;exitX=0.5;exitY=0;exitDx=0;exitDy=0;entryX=0.5;entryY=1;entryDx=0;entryDy=0;" parent="1" source="y5lAfnSBGU6_NEg_lJFl-18" target="0qpid6vyg2dMy18ObH3P-39" edge="1">
          <mxGeometry width="50" height="50" relative="1" as="geometry">
            <mxPoint x="984" y="1245" as="sourcePoint" />
            <mxPoint x="920" y="810" as="targetPoint" />
          </mxGeometry>
        </mxCell>
        <mxCell id="y5lAfnSBGU6_NEg_lJFl-20" value="houseNumber" style="ellipse;whiteSpace=wrap;html=1;" parent="1" vertex="1">
          <mxGeometry x="840" y="980" width="100" height="60" as="geometry" />
        </mxCell>
        <mxCell id="y5lAfnSBGU6_NEg_lJFl-21" value="" style="endArrow=none;html=1;rounded=0;exitX=0.5;exitY=0;exitDx=0;exitDy=0;entryX=0.5;entryY=1;entryDx=0;entryDy=0;" parent="1" source="y5lAfnSBGU6_NEg_lJFl-20" target="0qpid6vyg2dMy18ObH3P-39" edge="1">
          <mxGeometry width="50" height="50" relative="1" as="geometry">
            <mxPoint x="1074" y="1225" as="sourcePoint" />
            <mxPoint x="840" y="640" as="targetPoint" />
          </mxGeometry>
        </mxCell>
        <mxCell id="goQLb_mdzLpVoOqA4LZE-9" value="numberOfFavs" style="ellipse;whiteSpace=wrap;html=1;" parent="1" vertex="1">
          <mxGeometry x="140" y="980" width="100" height="60" as="geometry" />
        </mxCell>
        <mxCell id="goQLb_mdzLpVoOqA4LZE-10" value="" style="endArrow=none;html=1;rounded=0;exitX=0.5;exitY=0;exitDx=0;exitDy=0;entryX=0.5;entryY=1;entryDx=0;entryDy=0;" parent="1" source="goQLb_mdzLpVoOqA4LZE-9" target="0qpid6vyg2dMy18ObH3P-39" edge="1">
          <mxGeometry width="50" height="50" relative="1" as="geometry">
            <mxPoint x="584" y="840" as="sourcePoint" />
            <mxPoint x="710" y="600" as="targetPoint" />
          </mxGeometry>
        </mxCell>
        <mxCell id="goQLb_mdzLpVoOqA4LZE-11" value="&lt;i&gt;email&lt;/i&gt;" style="ellipse;whiteSpace=wrap;html=1;" parent="1" vertex="1">
          <mxGeometry x="940" y="980" width="100" height="60" as="geometry" />
        </mxCell>
        <mxCell id="goQLb_mdzLpVoOqA4LZE-12" value="" style="endArrow=none;html=1;rounded=0;entryX=0.5;entryY=1;entryDx=0;entryDy=0;exitX=0.5;exitY=0;exitDx=0;exitDy=0;" parent="1" source="goQLb_mdzLpVoOqA4LZE-11" target="0qpid6vyg2dMy18ObH3P-39" edge="1">
          <mxGeometry width="50" height="50" relative="1" as="geometry">
            <mxPoint x="917" y="1095" as="sourcePoint" />
            <mxPoint x="827" y="1025" as="targetPoint" />
          </mxGeometry>
        </mxCell>
        <mxCell id="goQLb_mdzLpVoOqA4LZE-13" value="" style="endArrow=none;html=1;rounded=0;exitX=1;exitY=0.5;exitDx=0;exitDy=0;entryX=0.5;entryY=0;entryDx=0;entryDy=0;" parent="1" source="0qpid6vyg2dMy18ObH3P-1" target="0qpid6vyg2dMy18ObH3P-39" edge="1">
          <mxGeometry width="50" height="50" relative="1" as="geometry">
            <mxPoint x="560" y="390" as="sourcePoint" />
            <mxPoint x="610" y="340" as="targetPoint" />
          </mxGeometry>
        </mxCell>
        <mxCell id="goQLb_mdzLpVoOqA4LZE-14" value="N" style="text;html=1;strokeColor=none;fillColor=none;align=center;verticalAlign=middle;whiteSpace=wrap;rounded=0;" parent="1" vertex="1">
          <mxGeometry x="690" y="570" width="60" height="30" as="geometry" />
        </mxCell>
        <mxCell id="goQLb_mdzLpVoOqA4LZE-15" value="1" style="text;html=1;strokeColor=none;fillColor=none;align=center;verticalAlign=middle;whiteSpace=wrap;rounded=0;" parent="1" vertex="1">
          <mxGeometry x="340" y="170" width="60" height="30" as="geometry" />
        </mxCell>
        <mxCell id="EZ3fuedfwEjSkA5gaLB1-2" value="country" style="ellipse;whiteSpace=wrap;html=1;" parent="1" vertex="1">
          <mxGeometry x="500" y="-150" width="100" height="60" as="geometry" />
        </mxCell>
        <mxCell id="EZ3fuedfwEjSkA5gaLB1-3" value="" style="endArrow=none;html=1;rounded=0;exitX=0.5;exitY=0;exitDx=0;exitDy=0;entryX=0.5;entryY=1;entryDx=0;entryDy=0;" parent="1" source="0qpid6vyg2dMy18ObH3P-1" target="EZ3fuedfwEjSkA5gaLB1-2" edge="1">
          <mxGeometry width="50" height="50" relative="1" as="geometry">
            <mxPoint x="400" y="120" as="sourcePoint" />
            <mxPoint x="240" y="-50" as="targetPoint" />
          </mxGeometry>
        </mxCell>
        <mxCell id="EZ3fuedfwEjSkA5gaLB1-4" value="city" style="ellipse;whiteSpace=wrap;html=1;" parent="1" vertex="1">
          <mxGeometry x="600" y="-150" width="100" height="60" as="geometry" />
        </mxCell>
        <mxCell id="EZ3fuedfwEjSkA5gaLB1-5" value="" style="endArrow=none;html=1;rounded=0;exitX=0.5;exitY=0;exitDx=0;exitDy=0;entryX=0.5;entryY=1;entryDx=0;entryDy=0;" parent="1" source="0qpid6vyg2dMy18ObH3P-1" target="EZ3fuedfwEjSkA5gaLB1-4" edge="1">
          <mxGeometry width="50" height="50" relative="1" as="geometry">
            <mxPoint x="400" y="120" as="sourcePoint" />
            <mxPoint x="340" y="-50" as="targetPoint" />
          </mxGeometry>
        </mxCell>
        <mxCell id="nW4yHTe8umSuWrVd2l3P-1" value="url" style="ellipse;whiteSpace=wrap;html=1;" vertex="1" parent="1">
          <mxGeometry x="40" y="980" width="100" height="60" as="geometry" />
        </mxCell>
        <mxCell id="nW4yHTe8umSuWrVd2l3P-2" value="" style="endArrow=none;html=1;rounded=0;exitX=0.5;exitY=0;exitDx=0;exitDy=0;entryX=0.5;entryY=1;entryDx=0;entryDy=0;" edge="1" parent="1" source="nW4yHTe8umSuWrVd2l3P-1" target="0qpid6vyg2dMy18ObH3P-39">
          <mxGeometry width="50" height="50" relative="1" as="geometry">
            <mxPoint x="444" y="840" as="sourcePoint" />
            <mxPoint x="610" y="660" as="targetPoint" />
          </mxGeometry>
        </mxCell>
      </root>
    </mxGraphModel>
  </diagram>
</mxfile>
